<?xml version="1.0" encoding="iso-8859-1"?>
<!-- Uploaded to: SVG Repo, www.svgrepo.com, Generator: SVG Repo Mixer Tools -->
<svg version="1.1" id="Capa_1" xmlns="http://www.w3.org/2000/svg" xmlns:xlink="http://www.w3.org/1999/xlink" 
	 viewBox="0 0 483.05 483.05" xml:space="preserve">
<g>
	<g>
		<g id="XMLID_15_">
			<g>
				<path style="fill:#F9CD16;" d="M400.34,69.83c1.18,11.28,1.41,22.61,0.71,33.89l-0.92-0.06l-54.24,51.32
					c-4.46-4.29-9.33-8.47-14.54-12.24l68.09-72.82L400.34,69.83z"/>
				<path style="fill:#F9A653;" d="M400.13,103.66l0.92,0.06c-0.85,13.69-3.06,27.28-6.62,40.58l-0.86-0.23l-36.36,22.89
					c-3.4-3.93-7.18-8-11.32-11.98L400.13,103.66z"/>
				<path style="fill:#F9A653;" d="M400.34,69.83l-0.9,0.09l-68.09,72.82c-4.37-3.16-8.98-6.03-13.8-8.44
					c11.91-21.17,65.13-80.72,65.96-81.65c0.01-0.01,0.01-0.01,0.01-0.01l12.71-7.7C398.12,53.18,399.49,61.49,400.34,69.83z"/>
				<path style="fill:#F9CD16;" d="M393.57,144.07l0.86,0.23c-2.3,8.6-5.16,17.07-8.58,25.36l-9.62,23.32
					c0,0-7.05-12.14-19.02-26.02L393.57,144.07z"/>
				<path style="fill:#EA5F2F;" d="M357.21,166.96c11.97,13.88,19.02,26.02,19.02,26.02l15.96,47.32
					c12.07,35.76,4.64,75.27-19.73,104.09c-12.54,14.83-24.39,32.04-29.57,48.64c-9.34-13.34-9.34-28.01-9.34-28.01
					c-4.41,46.43-61.32,70.44-54.68,112.03c-13.74-8.93-37.34-30.68-37.34-52.01c0,21.33-23.61,43.08-37.35,52.01
					c6.64-41.59-50.27-65.6-54.68-112.03c0,0,0,14.67-9.33,28.01c-5.19-16.6-17.04-33.81-29.58-48.64
					C86.22,315.57,78.8,276.06,90.86,240.3l15.97-47.32c0,0,7.04-12.13,19.02-26.01c3.39-3.93,7.18-8.01,11.32-11.99
					c4.46-4.29,9.32-8.47,14.53-12.24c4.37-3.16,8.99-6.03,13.81-8.44c-11.92-21.17-65.14-80.72-65.97-81.65l75.3,45.64
					c21.92-5.26,44.31-7.89,66.69-7.89s44.76,2.63,66.68,7.89l75.3-45.64c-0.83,0.93-54.05,60.48-65.96,81.65
					c4.82,2.41,9.43,5.28,13.8,8.44c5.21,3.77,10.08,7.95,14.54,12.24C350.03,158.96,353.81,163.03,357.21,166.96z M207.49,253.46
					l-3-5.51c-4.18-7.67-10.87-13.24-18.57-16.12c-7.35-2.77-15.62-3.08-23.53-0.45c-1.43,0.48-2.84,1.03-4.2,1.67
					C159.56,235.98,174.7,266.42,207.49,253.46z M276.11,364.88c-11.48,1.66-23.79-2.28-32.15-12.65l-2.43-3.02l24.38-33.79
					c-7.66-3.91-16.02-5.86-24.38-5.86c-8.37,0-16.73,1.95-24.39,5.86l24.39,33.79l-2.44,3.02c-8.36,10.37-20.66,14.31-32.14,12.65
					c0,0.01,0,0.01,0,0.01c5.16,14.09,18.69,24.15,34.58,24.15c15.88,0,29.41-10.06,34.58-24.15
					C276.11,364.89,276.11,364.89,276.11,364.88z M275.56,253.46c32.79,12.96,47.93-17.48,49.3-20.41c-1.36-0.64-2.76-1.19-4.2-1.67
					c-7.91-2.63-16.18-2.32-23.53,0.45c-7.7,2.88-14.38,8.45-18.56,16.12L275.56,253.46z M326.62,256.25c0-0.98-0.4-1.95-1.1-2.64
					c-0.69-0.7-1.66-1.1-2.64-1.1c-0.99,0-1.95,0.4-2.64,1.1c-0.7,0.69-1.1,1.66-1.1,2.64c0,0.98,0.4,1.95,1.1,2.64
					c0.69,0.7,1.65,1.1,2.64,1.1c0.98,0,1.95-0.4,2.64-1.1C326.22,258.2,326.62,257.23,326.62,256.25z M318.27,265.72
					c0-1.28-0.52-2.53-1.43-3.43c-0.9-0.91-2.15-1.43-3.44-1.43c-1.28,0-2.53,0.52-3.43,1.43c-0.9,0.9-1.43,2.15-1.43,3.43
					s0.53,2.54,1.43,3.44c0.9,0.91,2.15,1.42,3.43,1.42c1.29,0,2.54-0.51,3.44-1.42C317.75,268.26,318.27,267,318.27,265.72z
					 M306.93,273.2c0-1.57-0.65-3.12-1.76-4.23c-1.11-1.11-2.66-1.75-4.23-1.75s-3.11,0.64-4.23,1.75
					c-1.11,1.11-1.75,2.66-1.75,4.23c0,1.58,0.64,3.12,1.75,4.23c1.12,1.12,2.66,1.75,4.23,1.75s3.12-0.63,4.23-1.75
					C306.28,276.32,306.93,274.78,306.93,273.2z M293.45,164.78c0-28.68-23.25-51.92-51.92-51.92c-28.68,0-51.92,23.24-51.92,51.92
					c0,28.67,23.24,51.92,51.92,51.92C270.2,216.7,293.45,193.45,293.45,164.78z M188.09,273.2c0-1.57-0.63-3.11-1.75-4.23
					c-1.11-1.11-2.65-1.75-4.23-1.75c-1.57,0-3.11,0.64-4.23,1.75c-1.11,1.12-1.75,2.66-1.75,4.23c0,1.58,0.64,3.12,1.75,4.23
					c1.11,1.12,2.66,1.75,4.23,1.75c1.58,0,3.12-0.63,4.23-1.75C187.46,276.32,188.09,274.78,188.09,273.2z M174.5,265.72
					c0-1.28-0.51-2.53-1.42-3.43c-0.9-0.91-2.16-1.43-3.44-1.43s-2.53,0.52-3.43,1.43c-0.9,0.9-1.43,2.15-1.43,3.43
					s0.53,2.54,1.43,3.44c0.9,0.91,2.15,1.42,3.43,1.42s2.54-0.51,3.44-1.42C173.99,268.26,174.5,267,174.5,265.72z M163.91,256.25
					c0-0.98-0.4-1.95-1.1-2.64c-0.69-0.7-1.66-1.1-2.63-1.1c-0.99,0-1.96,0.4-2.65,1.1c-0.7,0.69-1.09,1.66-1.09,2.64
					c0,0.98,0.39,1.95,1.09,2.64c0.69,0.7,1.66,1.1,2.65,1.1c0.98,0,1.94-0.4,2.63-1.1C163.51,258.2,163.91,257.23,163.91,256.25z"
					/>
				<path style="fill:#F9CD16;" d="M325.52,253.61c0.7,0.69,1.1,1.66,1.1,2.64c0,0.98-0.4,1.95-1.1,2.64
					c-0.69,0.7-1.66,1.1-2.64,1.1c-0.99,0-1.95-0.4-2.64-1.1c-0.7-0.69-1.1-1.66-1.1-2.64c0-0.98,0.4-1.95,1.1-2.64
					c0.69-0.7,1.65-1.1,2.64-1.1C323.86,252.51,324.83,252.91,325.52,253.61z"/>
				<path style="fill:#F9CD16;" d="M297.13,231.83c7.35-2.77,15.62-3.08,23.53-0.45c1.44,0.48,2.84,1.03,4.2,1.67
					c-1.37,2.93-16.51,33.37-49.3,20.41l3.01-5.51C282.75,240.28,289.43,234.71,297.13,231.83z"/>
				<path style="fill:#F9CD16;" d="M316.84,262.29c0.91,0.9,1.43,2.15,1.43,3.43s-0.52,2.54-1.43,3.44
					c-0.9,0.91-2.15,1.42-3.44,1.42c-1.28,0-2.53-0.51-3.43-1.42c-0.9-0.9-1.43-2.16-1.43-3.44s0.53-2.53,1.43-3.43
					c0.9-0.91,2.15-1.43,3.43-1.43C314.69,260.86,315.94,261.38,316.84,262.29z"/>
				<path style="fill:#F9CD16;" d="M305.17,268.97c1.11,1.11,1.76,2.66,1.76,4.23c0,1.58-0.65,3.12-1.76,4.23
					c-1.11,1.12-2.66,1.75-4.23,1.75s-3.11-0.63-4.23-1.75c-1.11-1.11-1.75-2.65-1.75-4.23c0-1.57,0.64-3.12,1.75-4.23
					c1.12-1.11,2.66-1.75,4.23-1.75S304.06,267.86,305.17,268.97z"/>
				<path style="fill:#F9CD16;" d="M241.53,112.86c28.67,0,51.92,23.24,51.92,51.92c0,28.67-23.25,51.92-51.92,51.92
					c-28.68,0-51.92-23.25-51.92-51.92C189.61,136.1,212.85,112.86,241.53,112.86z M276.57,182.69c2.76-5.37,4.31-11.46,4.31-17.91
					c0-21.74-17.62-39.35-39.35-39.35c-21.74,0-39.35,17.61-39.35,39.35c0,21.73,17.61,39.35,39.35,39.35
					C256.81,204.13,270.06,195.42,276.57,182.69z"/>
				<path style="fill:#D16A0D;" d="M280.88,164.78c0,6.45-1.55,12.54-4.31,17.91l-2.58-1.03l-32.46-56.23
					C263.26,125.43,280.88,143.04,280.88,164.78z"/>
				<path style="fill:#D16A0D;" d="M273.99,181.66l2.58,1.03c-6.51,12.73-19.76,21.44-35.04,21.44c-21.74,0-39.35-17.62-39.35-39.35
					c0-21.74,17.61-39.35,39.35-39.35l-32.47,56.23H273.99z"/>
				<path style="fill:#D16A0D;" d="M276.11,364.88c0,0.01,0,0.01,0,0.01c-5.17,14.09-18.7,24.15-34.58,24.15
					c-15.89,0-29.42-10.06-34.58-24.15c0,0,0,0,0-0.01c11.48,1.66,23.78-2.28,32.14-12.65l2.44-3.02l2.43,3.02
					C252.32,362.6,264.63,366.54,276.11,364.88z"/>
				<path style="fill:#F9CD16;" d="M241.53,125.43l32.46,56.23h-64.93L241.53,125.43z M248.33,164.78c0-3.76-3.05-6.8-6.8-6.8
					c-3.76,0-6.81,3.04-6.81,6.8c0,3.75,3.05,6.8,6.81,6.8C245.28,171.58,248.33,168.53,248.33,164.78z"/>
				<path style="fill:#333333;" d="M265.91,315.42l-24.38,33.79l-24.39-33.79c7.66-3.91,16.02-5.86,24.39-5.86
					C249.89,309.56,258.25,311.51,265.91,315.42z"/>
				<path style="fill:#333333;" d="M241.53,157.98c3.75,0,6.8,3.04,6.8,6.8c0,3.75-3.05,6.8-6.8,6.8c-3.76,0-6.81-3.05-6.81-6.8
					C234.72,161.02,237.77,157.98,241.53,157.98z"/>
				<path style="fill:#F9CD16;" d="M185.92,231.83c7.7,2.88,14.39,8.45,18.57,16.12l3,5.51c-32.79,12.96-47.93-17.48-49.3-20.41
					c1.36-0.64,2.77-1.19,4.2-1.67C170.3,228.75,178.57,229.06,185.92,231.83z"/>
				<path style="fill:#F9CD16;" d="M186.34,268.97c1.12,1.12,1.75,2.66,1.75,4.23c0,1.58-0.63,3.12-1.75,4.23
					c-1.11,1.12-2.65,1.75-4.23,1.75c-1.57,0-3.12-0.63-4.23-1.75c-1.11-1.11-1.75-2.65-1.75-4.23c0-1.57,0.64-3.11,1.75-4.23
					c1.12-1.11,2.66-1.75,4.23-1.75C183.69,267.22,185.23,267.86,186.34,268.97z"/>
				<path style="fill:#F9CD16;" d="M173.08,262.29c0.91,0.9,1.42,2.15,1.42,3.43s-0.51,2.54-1.42,3.44
					c-0.9,0.91-2.16,1.42-3.44,1.42s-2.53-0.51-3.43-1.42c-0.9-0.9-1.43-2.16-1.43-3.44s0.53-2.53,1.43-3.43
					c0.9-0.91,2.15-1.43,3.43-1.43S172.18,261.38,173.08,262.29z"/>
				<path style="fill:#F9CD16;" d="M162.81,253.61c0.7,0.69,1.1,1.66,1.1,2.64c0,0.98-0.4,1.95-1.1,2.64
					c-0.69,0.7-1.65,1.1-2.63,1.1c-0.99,0-1.96-0.4-2.65-1.1c-0.7-0.69-1.09-1.66-1.09-2.64c0-0.98,0.39-1.95,1.09-2.64
					c0.69-0.7,1.66-1.1,2.65-1.1C161.15,252.51,162.12,252.91,162.81,253.61z"/>
				<path style="fill:#F9A653;" d="M165.51,134.3c-4.82,2.41-9.44,5.28-13.81,8.44L83.62,69.92l-0.91-0.09
					c0.85-8.34,2.22-16.65,4.11-24.89l12.71,7.7l0.01,0.01C100.37,53.58,153.59,113.13,165.51,134.3z"/>
				<path style="fill:#F9CD16;" d="M83.62,69.92l68.08,72.82c-5.21,3.77-10.07,7.95-14.53,12.24l-54.25-51.32L82,103.72
					c-0.26-4.24-0.39-8.48-0.39-12.72c0-7.06,0.36-14.13,1.1-21.17L83.62,69.92z"/>
				<path style="fill:#F9A653;" d="M82.92,103.66l54.25,51.32c-4.14,3.98-7.93,8.06-11.32,11.99l-36.37-22.9l-0.86,0.23
					c-3.56-13.3-5.77-26.89-6.62-40.58L82.92,103.66z"/>
				<path style="fill:#F9CD16;" d="M89.48,144.07l36.37,22.9c-11.98,13.88-19.02,26.01-19.02,26.01l-9.63-23.32
					c-3.42-8.29-6.28-16.76-8.58-25.36L89.48,144.07z"/>
			</g>
			<g>
				<path style="fill:none;stroke:#333333;stroke-width:12;stroke-linejoin:round;stroke-miterlimit:10;" d="M106.83,192.98
					c0,0,7.04-12.13,19.02-26.01c3.39-3.93,7.18-8.01,11.32-11.99c4.46-4.29,9.32-8.47,14.53-12.24c4.37-3.16,8.99-6.03,13.81-8.44
					c-11.92-21.17-65.14-80.72-65.97-81.65"/>
				<path style="fill:none;stroke:#333333;stroke-width:8;stroke-linecap:round;stroke-linejoin:round;stroke-miterlimit:10;" d="
					M211.71,261.18l-4.22-7.72l-3-5.51c-4.18-7.67-10.87-13.24-18.57-16.12c-7.35-2.77-15.62-3.08-23.53-0.45
					c-1.43,0.48-2.84,1.03-4.2,1.67c-3.15,1.42-6.1,3.24-8.79,5.39c-3.85,3.07-7.17,6.81-9.78,11.08l-7.28,11.93
					c-3.89,6.39-2.25,14.69,3.78,19.11c9.55,7,17.91,15.4,24.83,24.84s12.4,19.94,16.21,31.15l1.7,5
					c4.56,13.44,15.85,21.57,28.09,23.33c11.48,1.66,23.78-2.28,32.14-12.65l2.44-3.02"/>
				<path style="fill:none;stroke:#333333;stroke-width:8;stroke-linejoin:round;stroke-miterlimit:10;" d="M158.09,232.82
					c0,0,0.03,0.08,0.1,0.23c1.37,2.93,16.51,33.37,49.3,20.41"/>
				
					<line style="fill:none;stroke:#333333;stroke-width:8;stroke-linecap:round;stroke-linejoin:round;stroke-miterlimit:10;" x1="185.92" y1="240.73" x2="185.92" y2="231.83"/>
				<path style="fill:none;stroke:#333333;stroke-width:12;stroke-linecap:round;stroke-linejoin:round;stroke-miterlimit:10;" d="
					M86.82,44.94c0,0-12.04-32.72-26.27-38.94"/>
				<path style="fill:none;stroke:#333333;stroke-width:12;stroke-linejoin:round;stroke-miterlimit:10;" d="M383.51,52.65
					l-75.3,45.64c-21.92-5.26-44.3-7.89-66.68-7.89s-44.77,2.63-66.69,7.89l-75.3-45.64l-0.01-0.01l-12.71-7.7
					c-1.89,8.24-3.26,16.55-4.11,24.89c-0.74,7.04-1.1,14.11-1.1,21.17c0,4.24,0.13,8.48,0.39,12.72
					c0.85,13.69,3.06,27.28,6.62,40.58c2.3,8.6,5.16,17.07,8.58,25.36l9.63,23.32L90.86,240.3c-12.06,35.76-4.64,75.27,19.73,104.09
					c12.54,14.83,24.39,32.04,29.58,48.64c9.33-13.34,9.33-28.01,9.33-28.01c4.41,46.43,61.32,70.44,54.68,112.03
					c13.74-8.93,37.35-30.68,37.35-52.01c0,21.33,23.6,43.08,37.34,52.01c-6.64-41.59,50.27-65.6,54.68-112.03
					c0,0,0,14.67,9.34,28.01c5.18-16.6,17.03-33.81,29.57-48.64c24.37-28.82,31.8-68.33,19.73-104.09l-15.96-47.32l9.62-23.32
					c3.42-8.29,6.28-16.76,8.58-25.36c3.56-13.3,5.77-26.89,6.62-40.58c0.7-11.28,0.47-22.61-0.71-33.89
					c-0.85-8.34-2.22-16.65-4.11-24.89l-12.71,7.7"/>
				<path style="fill:none;stroke:#333333;stroke-width:12;stroke-linejoin:round;stroke-miterlimit:10;" d="M376.23,192.98
					c0,0-7.05-12.14-19.02-26.02c-3.4-3.93-7.18-8-11.32-11.98c-4.46-4.29-9.33-8.47-14.54-12.24c-4.37-3.16-8.98-6.03-13.8-8.44
					c11.91-21.17,65.13-80.72,65.96-81.65c0.01-0.01,0.01-0.01,0.01-0.01"/>
				<path style="fill:none;stroke:#333333;stroke-width:8;stroke-linecap:round;stroke-linejoin:round;stroke-miterlimit:10;" d="
					M271.35,261.18l4.21-7.72l3.01-5.51c4.18-7.67,10.86-13.24,18.56-16.12c7.35-2.77,15.62-3.08,23.53-0.45
					c1.44,0.48,2.84,1.03,4.2,1.67c3.15,1.42,6.1,3.24,8.79,5.39c3.86,3.07,7.18,6.81,9.79,11.08l7.27,11.93
					c3.89,6.39,2.25,14.69-3.78,19.11c-9.55,7-17.91,15.4-24.83,24.84c-6.92,9.44-12.41,19.94-16.21,31.15l-1.7,5
					c-4.56,13.44-15.85,21.57-28.08,23.33c-11.48,1.66-23.79-2.28-32.15-12.65l-2.43-3.02"/>
				<path style="fill:none;stroke:#333333;stroke-width:8;stroke-linejoin:round;stroke-miterlimit:10;" d="M324.96,232.82
					c0,0-0.03,0.08-0.1,0.23c-1.37,2.93-16.51,33.37-49.3,20.41"/>
				
					<line style="fill:none;stroke:#333333;stroke-width:8;stroke-linecap:round;stroke-linejoin:round;stroke-miterlimit:10;" x1="297.13" y1="240.73" x2="297.13" y2="231.83"/>
				<path style="fill:none;stroke:#333333;stroke-width:12;stroke-linecap:round;stroke-linejoin:round;stroke-miterlimit:10;" d="
					M396.23,44.94c0,0,12.05-32.72,26.27-38.94"/>
				<path style="fill:none;stroke:#333333;stroke-width:8;stroke-linejoin:round;stroke-miterlimit:10;" d="M265.91,315.42
					l-24.38,33.79l-24.39-33.79c7.66-3.91,16.02-5.86,24.39-5.86C249.89,309.56,258.25,311.51,265.91,315.42z"/>
				<path style="fill:none;stroke:#333333;stroke-width:8;stroke-linejoin:round;stroke-miterlimit:10;" d="M276.11,364.88
					c0,0.01,0,0.01,0,0.01c-5.17,14.09-18.7,24.15-34.58,24.15c-15.89,0-29.42-10.06-34.58-24.15c0,0,0,0,0-0.01"/>
				<path style="fill:none;stroke:#333333;stroke-width:8;stroke-linecap:round;stroke-linejoin:round;stroke-miterlimit:10;" d="
					M217.18,233.62c0,0-16-28.45-47.12-30.23"/>
				<path style="fill:none;stroke:#333333;stroke-width:8;stroke-linecap:round;stroke-linejoin:round;stroke-miterlimit:10;" d="
					M265.87,233.62c0,0,16-28.45,47.12-30.23"/>
				<path style="fill:none;stroke:#333333;stroke-width:8;stroke-linejoin:round;stroke-miterlimit:10;" d="M293.45,164.78
					c0-28.68-23.25-51.92-51.92-51.92c-28.68,0-51.92,23.24-51.92,51.92c0,28.67,23.24,51.92,51.92,51.92
					C270.2,216.7,293.45,193.45,293.45,164.78z"/>
				<path style="fill:none;stroke:#333333;stroke-width:8;stroke-linejoin:round;stroke-miterlimit:10;" d="M276.57,182.69
					c2.76-5.37,4.31-11.46,4.31-17.91c0-21.74-17.62-39.35-39.35-39.35c-21.74,0-39.35,17.61-39.35,39.35
					c0,21.73,17.61,39.35,39.35,39.35C256.81,204.13,270.06,195.42,276.57,182.69z"/>
				<polygon style="fill:none;stroke:#333333;stroke-width:8;stroke-linejoin:round;stroke-miterlimit:10;" points="273.99,181.66 
					209.06,181.66 241.53,125.43 				"/>
				<polyline style="fill:none;stroke:#333333;stroke-width:8;stroke-linejoin:round;stroke-miterlimit:10;" points="330.98,143.14 
					331.35,142.74 399.44,69.92 				"/>
				<polyline style="fill:none;stroke:#333333;stroke-width:8;stroke-linejoin:round;stroke-miterlimit:10;" points="345.43,155.42 
					345.89,154.98 400.13,103.66 				"/>
				<polyline style="fill:none;stroke:#333333;stroke-width:8;stroke-linejoin:round;stroke-miterlimit:10;" points="356.61,167.34 
					357.21,166.96 393.57,144.07 				"/>
				<polyline style="fill:none;stroke:#333333;stroke-width:8;stroke-linejoin:round;stroke-miterlimit:10;" points="152.07,143.14 
					151.7,142.74 83.62,69.92 				"/>
				<polyline style="fill:none;stroke:#333333;stroke-width:8;stroke-linejoin:round;stroke-miterlimit:10;" points="137.63,155.42 
					137.17,154.98 82.92,103.66 				"/>
				<polyline style="fill:none;stroke:#333333;stroke-width:8;stroke-linejoin:round;stroke-miterlimit:10;" points="126.44,167.34 
					125.85,166.97 89.48,144.07 				"/>
			</g>
		</g>
	</g>
	<g>
		<path style="fill:none;stroke:#333333;stroke-width:8;stroke-linecap:round;stroke-linejoin:round;stroke-miterlimit:10;" d="
			M191.716,330.66c0,0-86.611-23.896-112.371,59.175"/>
		<path style="fill:none;stroke:#333333;stroke-width:8;stroke-linecap:round;stroke-linejoin:round;stroke-miterlimit:10;" d="
			M191.716,317.382c0,0-79.176-42.47-122.68,32.842"/>
		<path style="fill:none;stroke:#333333;stroke-width:8;stroke-linecap:round;stroke-linejoin:round;stroke-miterlimit:10;" d="
			M191.716,300.976c0,0-71.083-54.951-126.417,12.15"/>
		<path style="fill:none;stroke:#333333;stroke-width:8;stroke-linecap:round;stroke-linejoin:round;stroke-miterlimit:10;" d="
			M291.336,330.66c0,0,86.611-23.896,112.371,59.175"/>
		<path style="fill:none;stroke:#333333;stroke-width:8;stroke-linecap:round;stroke-linejoin:round;stroke-miterlimit:10;" d="
			M291.336,317.382c0,0,79.176-42.47,122.68,32.842"/>
		<path style="fill:none;stroke:#333333;stroke-width:8;stroke-linecap:round;stroke-linejoin:round;stroke-miterlimit:10;" d="
			M291.336,300.976c0,0,71.083-54.951,126.418,12.15"/>
	</g>
	<g>
		<path style="fill:#F9CD16;" d="M366.7,260.36c-0.311-2.18,1.22-4.2,3.41-4.5l0,0c2.189-0.3,4.21,1.23,4.51,3.42l0,0
			c0.3,2.18-1.23,4.2-3.42,4.5l0,0c-0.18,0.03-0.36,0.04-0.55,0.04l0,0C368.68,263.82,366.97,262.37,366.7,260.36z M361.93,239.3
			c-0.68-2.11,0.49-4.36,2.591-5.03l0,0c2.109-0.67,4.359,0.49,5.029,2.59l0,0c0.67,2.11-0.49,4.36-2.6,5.03l0,0
			c-0.4,0.13-0.811,0.19-1.22,0.19l0,0C364.04,242.08,362.47,241,361.93,239.3z M353.61,219.36c-1.021-1.96-0.261-4.38,1.699-5.4
			l0,0c1.961-1.02,4.37-0.26,5.4,1.7l0,0c1.01,1.96,0.26,4.37-1.7,5.39l0,0c-0.59,0.31-1.23,0.46-1.85,0.46l0,0
			C355.72,221.51,354.33,220.73,353.61,219.36z M342.01,201.13L342.01,201.13c-1.34-1.76-1-4.27,0.761-5.61l0,0
			c1.75-1.34,4.26-1,5.6,0.75l0,0c1.34,1.76,1.01,4.27-0.75,5.61l0,0c-0.73,0.55-1.58,0.82-2.42,0.82l0,0
			C343.99,202.7,342.8,202.16,342.01,201.13z M327.49,185.13c-1.62-1.51-1.72-4.04-0.21-5.66l0,0c1.5-1.61,4.029-1.71,5.649-0.21
			l0,0l0,0l0,0c1.62,1.51,1.71,4.04,0.21,5.66l0,0c-0.79,0.85-1.859,1.28-2.93,1.28l0,0C329.23,186.2,328.26,185.84,327.49,185.13z
			 M310.46,171.82c-1.85-1.21-2.37-3.69-1.17-5.54l0,0c1.21-1.85,3.69-2.37,5.54-1.16l0,0l0,0l0,0c1.85,1.21,2.37,3.68,1.16,5.54
			l0,0c-0.76,1.17-2.04,1.81-3.351,1.81l0,0C311.889,172.47,311.13,172.26,310.46,171.82z"/>
	</g>
	<g>
		<path style="fill:#F9CD16;" d="M111.84,263.82c-2.189-0.3-3.72-2.31-3.42-4.5l0,0c0,0,0,0,0.01,0l0,0
			c0.301-2.19,2.311-3.72,4.5-3.42l0,0c2.19,0.3,3.721,2.32,3.42,4.5l0,0c-0.279,2.01-1.989,3.46-3.96,3.46l0,0
			C112.21,263.86,112.03,263.85,111.84,263.82z M116.09,241.93c-2.109-0.67-3.27-2.93-2.6-5.03l0,0c0.67-2.1,2.92-3.27,5.03-2.6l0,0
			c2.1,0.67,3.26,2.92,2.59,5.03l0,0c-0.54,1.7-2.11,2.79-3.811,2.79l0,0C116.9,242.12,116.49,242.05,116.09,241.93z M124.03,221.08
			c-1.96-1.02-2.721-3.44-1.7-5.39l0,0c1.02-1.96,3.44-2.72,5.39-1.7l0,0c1.96,1.02,2.721,3.44,1.7,5.4l0,0
			c-0.71,1.36-2.11,2.15-3.55,2.15l0,0C125.25,221.54,124.62,221.39,124.03,221.08z M135.41,201.9c-1.75-1.34-2.09-3.85-0.75-5.6
			l0,0c1.34-1.76,3.85-2.09,5.61-0.75l0,0c1.75,1.33,2.09,3.85,0.75,5.6l0,0c-0.79,1.03-1.98,1.57-3.181,1.57l0,0
			C136.99,202.72,136.139,202.46,135.41,201.9z M149.889,184.94c-1.5-1.62-1.409-4.15,0.21-5.65l0,0c1.62-1.51,4.15-1.42,5.65,0.2
			l0,0c1.51,1.62,1.41,4.15-0.21,5.66h0.01c-0.77,0.71-1.75,1.07-2.73,1.07l0,0C151.75,186.22,150.68,185.79,149.889,184.94z
			 M167.04,170.67c-1.21-1.85-0.69-4.33,1.16-5.53l0,0c1.85-1.21,4.33-0.69,5.53,1.16l0,0c1.21,1.85,0.689,4.33-1.16,5.54l0,0
			c-0.67,0.44-1.431,0.65-2.181,0.65l0,0C169.08,172.49,167.8,171.85,167.04,170.67z"/>
	</g>
	<g>
		<path style="fill:#F9CD16;" d="M237.53,286.39c0-2.2,1.79-4,4-4l0,0c2.2,0,3.99,1.8,3.99,4l0,0c0,2.21-1.79,4-3.99,4l0,0
			C239.32,290.39,237.53,288.6,237.53,286.39z M237.53,263.16c0-2.21,1.79-4,4-4l0,0c2.2,0,3.99,1.79,3.99,4l0,0
			c0,2.21-1.79,4-3.99,4l0,0C239.32,267.16,237.53,265.37,237.53,263.16z M237.53,239.93c0-2.21,1.79-4,4-4l0,0
			c2.2,0,3.99,1.79,3.99,4l0,0c0,2.21-1.79,4-3.99,4l0,0C239.32,243.93,237.53,242.14,237.53,239.93z"/>
	</g>
</g>
</svg>